<svg width="30" height="24" viewBox="0 0 30 24" fill="none" xmlns="http://www.w3.org/2000/svg">
<path d="M28.5 0C29.2692 0 29.9032 0.57906 29.9899 1.32507L30 1.5V11.25C30 14.0529 27.8035 16.3426 25.038 16.4922L24.75 16.5H5.1225L10.0607 21.4394C10.6014 21.9801 10.643 22.8309 10.1855 23.4193L10.0607 23.5606C9.51993 24.1014 8.66909 24.143 8.08065 23.6855L7.93933 23.5606L0.439335 16.0606C0.38625 16.0075 0.337965 15.9514 0.294495 15.893L0.187005 15.7262L0.106845 15.5569L0.0537751 15.399L0.0165299 15.2228L0.00596988 15.1347L0 15L0.00418496 14.8872L0.0303601 14.6989L0.0746101 14.5318L0.140505 14.3652L0.219 14.2189L0.31455 14.0807L0.439335 13.9394L7.93933 6.43933C8.52513 5.85355 9.47487 5.85355 10.0607 6.43933C10.6014 6.98007 10.643 7.83091 10.1855 8.41935L10.0607 8.56067L5.1225 13.5H24.75C25.9195 13.5 26.8806 12.6076 26.9896 11.4667L27 11.25V1.5C27 0.67158 27.6716 0 28.5 0Z" fill="white"/>
</svg>
