<svg width="30" height="31" viewBox="0 0 30 31" fill="none" xmlns="http://www.w3.org/2000/svg">
<path d="M12 5.5H18C18 3.84314 16.6569 2.5 15 2.5C13.3431 2.5 12 3.84314 12 5.5ZM9.75 5.5C9.75 2.6005 12.1005 0.25 15 0.25C17.8995 0.25 20.25 2.6005 20.25 5.5H28.875C29.4963 5.5 30 6.00368 30 6.625C30 7.24632 29.4963 7.75 28.875 7.75H26.8964L25.1383 25.9168C24.8594 28.8001 22.4363 31 19.5395 31H10.4605C7.56381 31 5.14072 28.8001 4.86169 25.9168L3.10362 7.75H1.125C0.503685 7.75 0 7.24632 0 6.625C0 6.00368 0.503685 5.5 1.125 5.5H9.75ZM12.75 12.625C12.75 12.0037 12.2463 11.5 11.625 11.5C11.0037 11.5 10.5 12.0037 10.5 12.625V23.875C10.5 24.4963 11.0037 25 11.625 25C12.2463 25 12.75 24.4963 12.75 23.875V12.625ZM18.375 11.5C17.7537 11.5 17.25 12.0037 17.25 12.625V23.875C17.25 24.4963 17.7537 25 18.375 25C18.9963 25 19.5 24.4963 19.5 23.875V12.625C19.5 12.0037 18.9963 11.5 18.375 11.5Z" fill="white"/>
</svg>
