<svg width="21" height="21" viewBox="0 0 21 21" fill="none" xmlns="http://www.w3.org/2000/svg">
<path d="M12.432 13.6399L12.5254 13.7179L19.4531 20.5186C18.9578 20.8239 18.3745 21 17.75 21H6.25C5.62551 21 5.04216 20.8239 4.54692 20.5186L11.4746 13.7179L11.5582 13.6469C11.8174 13.4576 12.1705 13.4552 12.432 13.6399ZM17.75 3C19.5449 3 21 4.45507 21 6.25V17.75C21 18.3771 20.8224 18.9626 20.5148 19.4592L13.5762 12.6475L13.4477 12.5306C12.615 11.8293 11.3941 11.8273 10.5592 12.5248L10.4238 12.6475L3.4852 19.4592C3.17758 18.9626 3 18.3771 3 17.75V11.5019C3.76965 11.8228 4.61413 12 5.5 12C9.0899 12 12 9.0899 12 5.5C12 4.61413 11.8228 3.76965 11.5019 3H17.75ZM5.5 0C8.53757 0 11 2.46243 11 5.5C11 8.53757 8.53757 11 5.5 11C2.46243 11 0 8.53757 0 5.5C0 2.46243 2.46243 0 5.5 0ZM15.7521 6C14.5083 6 13.5 7.00831 13.5 8.25212C13.5 9.4959 14.5083 10.5042 15.7521 10.5042C16.9959 10.5042 18.0042 9.4959 18.0042 8.25212C18.0042 7.00831 16.9959 6 15.7521 6ZM15.7521 7.5C16.1675 7.5 16.5042 7.83673 16.5042 8.25212C16.5042 8.6675 16.1675 9.0042 15.7521 9.0042C15.3367 9.0042 15 8.6675 15 8.25212C15 7.83673 15.3367 7.5 15.7521 7.5ZM5.5 1.99923L5.41012 2.00729C5.20603 2.04433 5.0451 2.20527 5.00806 2.40936L5 2.49923L4.99965 4.99923L2.49765 5L2.40777 5.00806C2.20368 5.0451 2.04275 5.20603 2.00571 5.41012L1.99765 5.5L2.00571 5.58988C2.04275 5.79397 2.20368 5.9549 2.40777 5.99194L2.49765 6L5.00065 5.99923L5.00111 8.50348L5.00916 8.59336C5.04621 8.79745 5.20714 8.95839 5.41123 8.99543L5.50111 9.0035L5.59098 8.99543C5.79508 8.95839 5.95601 8.79745 5.99305 8.59336L6.00111 8.50348L6.00065 5.99923L8.50457 6L8.59444 5.99194C8.79853 5.9549 8.95947 5.79397 8.99651 5.58988L9.0046 5.5L8.99651 5.41012C8.95947 5.20603 8.79853 5.0451 8.59444 5.00806L8.50457 5L5.99965 4.99923L6 2.49923L5.99194 2.40936C5.9549 2.20527 5.79397 2.04433 5.58988 2.00729L5.5 1.99923Z" fill="#000"/>
</svg>
