<svg width="36" height="27" viewBox="0 0 36 27" fill="none" xmlns="http://www.w3.org/2000/svg">
<path d="M0 3.15C0 1.4103 1.4103 0 3.15 0H27.45C29.1897 0 30.6 1.4103 30.6 3.15V18.45C30.6 20.1897 29.1897 21.6 27.45 21.6H3.15C1.4103 21.6 0 20.1897 0 18.45V3.15ZM5.4 2.25V4.05C5.4 4.79558 4.79558 5.4 4.05 5.4H2.25V8.1H4.05C6.28675 8.1 8.1 6.28675 8.1 4.05V2.25H5.4ZM15.3 15.3C17.5367 15.3 19.35 13.4867 19.35 11.25C19.35 9.01332 17.5367 7.2 15.3 7.2C13.0632 7.2 11.25 9.01332 11.25 11.25C11.25 13.4867 13.0632 15.3 15.3 15.3ZM2.25 16.2H4.05C4.79558 16.2 5.4 16.8044 5.4 17.55V19.35H8.1V17.55C8.1 15.3133 6.28675 13.5 4.05 13.5H2.25V16.2ZM25.2 17.55C25.2 16.8044 25.8044 16.2 26.55 16.2H28.35V13.5H26.55C24.3133 13.5 22.5 15.3133 22.5 17.55V19.35H25.2V17.55ZM25.2 4.05V2.25H22.5V4.05C22.5 6.28675 24.3133 8.1 26.55 8.1H28.35V5.4H26.55C25.8044 5.4 25.2 4.79558 25.2 4.05ZM4.32243 24.3C5.25611 25.9141 7.00124 27 9 27H27.45C32.1721 27 36 23.1721 36 18.45V9C36 7.00124 34.9141 5.25611 33.3 4.32243V18.45C33.3 21.6808 30.6808 24.3 27.45 24.3H4.32243Z" fill="white"/>
</svg>
