<svg width="17" height="20" viewBox="0 0 17 20" fill="none" xmlns="http://www.w3.org/2000/svg">
<path d="M2.25 0C1.00736 0 0 1.00736 0 2.25V17.75C0 18.9926 1.00736 20 2.25 20H9.7504C10.986 20 11.989 19.0041 12.0004 17.7712L12.0006 17.7501V16.2501C12.0006 15.8359 11.6649 15.5001 11.2506 15.5001C10.7968 15.5001 10.5113 15.378 10.3138 15.2193C10.1058 15.052 9.9343 14.794 9.8028 14.4301C9.5302 13.6751 9.5007 12.6796 9.5006 11.75C9.5006 11.5601 9.4285 11.3772 9.2989 11.2384C9.2226 11.1566 9.1714 11.1012 9.1345 11.0614C9.0441 10.9637 9.0398 10.9591 8.964 10.8877C8.8901 10.8182 8.6644 10.6027 7.781 9.7197C7.3125 9.2514 7.0527 8.8551 6.9677 8.5524C6.9288 8.4137 6.9308 8.3102 6.9521 8.2269C6.9733 8.1443 7.0253 8.0358 7.1568 7.90425C7.2882 7.77277 7.3965 7.72105 7.4786 7.70003C7.5613 7.67883 7.6645 7.67686 7.8029 7.7159C8.1054 7.80123 8.5014 8.0615 8.9701 8.5305C9.5097 9.0704 10.0225 9.5775 10.4818 10.0318C11.2413 10.7828 11.8554 11.3901 12.2024 11.7619C12.485 12.0647 12.9596 12.081 13.2624 11.7984C13.5652 11.5158 13.5816 11.0412 13.299 10.7384C13.0144 10.4335 12.5571 9.9759 12.0002 9.424L12.0001 6.06031L14.8415 8.9017C15.2634 9.3236 15.5005 9.8959 15.5005 10.4926V19.25C15.5005 19.6642 15.8363 20 16.2505 20C16.6647 20 17.0005 19.6642 17.0005 19.25V10.4926C17.0005 9.4981 16.6054 8.5443 15.9021 7.84099L12.0001 3.93894L12 2.24994C12 1.00732 10.9927 0 9.75 0H2.25ZM9.3739 16.3882C9.6952 16.6466 10.0716 16.8266 10.5004 16.9216V17H9.7505C9.3363 17 9.0005 17.3358 9.0005 17.75V18.5H7.5005V17.75C7.5005 16.8566 8.0212 16.0848 8.7756 15.7216C8.9357 15.9665 9.1321 16.1939 9.3739 16.3882ZM8.0016 12.0459C8.0035 12.2989 8.009 12.5723 8.0243 12.8558C7.4529 13.2614 6.7545 13.4999 6.0005 13.4999C4.06746 13.4999 2.50045 11.9329 2.50045 9.9999C2.50045 8.0669 4.06746 6.49991 6.0005 6.49991C6.1611 6.49991 6.3191 6.51073 6.474 6.53167C6.3406 6.62056 6.2146 6.72513 6.096 6.84375C5.80361 7.13619 5.59669 7.47418 5.49921 7.85411C5.4019 8.2334 5.42543 8.6084 5.52354 8.9578C5.71259 9.6312 6.1888 10.2491 6.7206 10.7806C7.6038 11.6633 7.8439 11.8935 7.9363 11.9803C7.942 11.9857 7.9463 11.9897 7.9496 11.9927C7.9531 11.9959 7.9555 11.998 7.9575 11.9997L7.9614 12.0032C7.9666 12.008 7.9714 12.0132 7.9976 12.0416L8.0016 12.0459ZM3.00049 1.5H4.50049V2.24951C4.50049 3.49215 3.49313 4.49951 2.25049 4.49951H1.5V2.99951H2.25049C2.6647 2.99951 3.00049 2.66373 3.00049 2.24951V1.5ZM7.5005 1.5H9.0005V2.24951C9.0005 2.66373 9.3363 2.99951 9.7505 2.99951H10.5001V4.49951H9.7505C8.5078 4.49951 7.5005 3.49215 7.5005 2.24951V1.5ZM4.50049 18.5H3.00049V17.75C3.00049 17.3358 2.6647 17 2.25049 17H1.5V15.5H2.25049C3.49313 15.5 4.50049 16.5074 4.50049 17.75V18.5Z" fill="white"/>
</svg>
