<svg width="30" height="30" viewBox="0 0 30 30" fill="none" xmlns="http://www.w3.org/2000/svg">
<path d="M1.92049 0.329501C1.48116 -0.109834 0.76884 -0.109834 0.329505 0.329501C-0.10983 0.768836 -0.10983 1.48116 0.329505 1.92049L2.90901 4.5H2.625C1.17525 4.5 0 5.67525 0 7.125V19.875C0 21.3247 1.17525 22.5 2.625 22.5H20.9089L23.1513 24.7423C23.0598 24.7474 22.9677 24.75 22.875 24.75H3.60203C4.38009 26.095 5.83437 27 7.5 27H22.875C23.6394 27 24.3756 26.8797 25.0659 26.6568L28.0795 29.6704C28.5189 30.1098 29.2311 30.1098 29.6705 29.6704C30.1098 29.2311 30.1098 28.5189 29.6705 28.0795L1.92049 0.329501ZM14.8921 16.4832C14.3094 16.9623 13.5633 17.25 12.75 17.25C10.886 17.25 9.375 15.7389 9.375 13.875C9.375 13.0617 9.66269 12.3156 10.1418 11.7328L14.8921 16.4832ZM4.78401 6.375L6.72186 8.31285C6.50719 9.96996 5.09058 11.25 3.375 11.25H1.875V9H3.375C3.99632 9 4.5 8.49631 4.5 7.875V6.375H4.78401ZM3.375 18H1.875V15.75H3.375C5.23896 15.75 6.75 17.2611 6.75 19.125V20.625H4.5V19.125C4.5 18.5037 3.99632 18 3.375 18ZM23.625 18H22.7712L25.3925 20.6212C25.4624 20.3847 25.5 20.1342 25.5 19.875V7.125C25.5 5.67525 24.3248 4.5 22.875 4.5H9.27117L20.7939 16.0227C21.2022 15.8472 21.6523 15.75 22.125 15.75H23.625V18ZM21 6.375V7.875C21 8.49631 21.5037 9 22.125 9H23.625V11.25H22.125C20.2611 11.25 18.75 9.73896 18.75 7.875V6.375H21ZM27.0926 22.3215L28.7206 23.9496C29.5271 22.7949 30 21.3901 30 19.875V12C30 10.3344 29.0951 8.88009 27.75 8.10202V19.875C27.75 20.7666 27.5106 21.6024 27.0926 22.3215Z" fill="white"/>
</svg>
