<svg width="28" height="32" viewBox="0 0 28 32" xmlns="http://www.w3.org/2000/svg">
<path d="M21.4568 15.9861L12.7638 24.6791C12.257 25.1859 11.8973 25.821 11.7234 26.5163L11.0495 29.2125C10.7563 30.3851 11.8185 31.4471 12.991 31.154L15.6872 30.4799C16.3826 30.306 17.0176 29.9466 17.5245 29.4397L26.2174 20.7468C27.5319 19.4321 27.5319 17.3007 26.2174 15.9861C24.9029 14.6714 22.7713 14.6714 21.4568 15.9861ZM5.60019 1.5001C5.60019 1.00305 5.19725 0.600098 4.7002 0.600098C4.20314 0.600098 3.8002 1.00305 3.8002 1.5001V2.4001H2.9002C1.40902 2.4001 0.200195 3.60892 0.200195 5.1001V26.7001C0.200195 28.1912 1.40902 29.4001 2.9002 29.4001H9.20534C9.21846 29.1947 9.25051 28.9863 9.30308 28.7759L9.97713 26.0798C10.2301 25.0679 10.7533 24.1437 11.4909 23.4063L20.1838 14.7133C20.6631 14.234 21.213 13.8686 21.8002 13.617V5.1001C21.8002 3.60892 20.5913 2.4001 19.1002 2.4001H18.2002V1.5001C18.2002 1.00305 17.7972 0.600098 17.3002 0.600098C16.8032 0.600098 16.4002 1.00305 16.4002 1.5001V2.4001H11.9002V1.5001C11.9002 1.00305 11.4972 0.600098 11.0002 0.600098C10.5031 0.600098 10.1002 1.00305 10.1002 1.5001V2.4001H5.60019V1.5001ZM6.5002 9.6001H15.5002C15.9972 9.6001 16.4002 10.003 16.4002 10.5001C16.4002 10.9972 15.9972 11.4001 15.5002 11.4001H6.5002C6.00314 11.4001 5.60019 10.9972 5.60019 10.5001C5.60019 10.003 6.00314 9.6001 6.5002 9.6001ZM16.4002 15.9001C16.4002 16.3971 15.9972 16.8001 15.5002 16.8001H6.5002C6.00314 16.8001 5.60019 16.3971 5.60019 15.9001C5.60019 15.4031 6.00314 15.0001 6.5002 15.0001H15.5002C15.9972 15.0001 16.4002 15.4031 16.4002 15.9001ZM6.5002 20.4001H10.1002C10.5972 20.4001 11.0002 20.8031 11.0002 21.3001C11.0002 21.7971 10.5972 22.2001 10.1002 22.2001H6.5002C6.00314 22.2001 5.60019 21.7971 5.60019 21.3001C5.60019 20.8031 6.00314 20.4001 6.5002 20.4001Z" fill="#fff"/>
</svg>
