<svg width="32" height="29" viewBox="0 0 32 29" fill="none" xmlns="http://www.w3.org/2000/svg">
<path d="M5 3.875C5 2.01104 6.51104 0.5 8.375 0.5H22.625C24.4889 0.5 26 2.01104 26 3.875V17H32V22.625C32 25.3174 29.8174 27.5 27.125 27.5H18.425C18.4742 27.2576 18.5 27.0068 18.5 26.75V20.75C18.5 18.6789 16.8211 17 14.75 17H5V3.875ZM26 25.25H27.125C28.5748 25.25 29.75 24.0748 29.75 22.625V19.25H26V25.25ZM10.25 7.625C10.25 8.24632 10.7537 8.75 11.375 8.75H19.625C20.2463 8.75 20.75 8.24632 20.75 7.625C20.75 7.00368 20.2463 6.5 19.625 6.5H11.375C10.7537 6.5 10.25 7.00368 10.25 7.625ZM11.375 12.5C10.7537 12.5 10.25 13.0037 10.25 13.625C10.25 14.2463 10.7537 14.75 11.375 14.75H19.625C20.2463 14.75 20.75 14.2463 20.75 13.625C20.75 13.0037 20.2463 12.5 19.625 12.5H11.375ZM2.75 18.5C1.50735 18.5 0.5 19.5074 0.5 20.75V26.75C0.5 27.9926 1.50735 29 2.75 29H14.75C15.9926 29 17 27.9926 17 26.75V20.75C17 19.5074 15.9926 18.5 14.75 18.5H2.75ZM14 20C14 20.8284 14.6715 21.5 15.5 21.5V23C13.8431 23 12.5 21.6569 12.5 20H14ZM12.5 27.5C12.5 25.8431 13.8431 24.5 15.5 24.5V26C14.6715 26 14 26.6716 14 27.5H12.5ZM2 21.5C2.82843 21.5 3.5 20.8284 3.5 20H5C5 21.6569 3.65686 23 2 23V21.5ZM2 24.5C3.65686 24.5 5 25.8431 5 27.5H3.5C3.5 26.6716 2.82842 26 2 26V24.5ZM8.75 21.125C10.1997 21.125 11.375 22.3002 11.375 23.75C11.375 25.1998 10.1997 26.375 8.75 26.375C7.30025 26.375 6.125 25.1998 6.125 23.75C6.125 22.3002 7.30025 21.125 8.75 21.125Z" fill="white"/>
</svg>
