<svg width="16" height="20" viewBox="0 0 16 20" fill="none" xmlns="http://www.w3.org/2000/svg">
<path d="M2.25 0C1.00736 0 0 1.00736 0 2.25V17.75C0 18.9926 1.00736 20 2.25 20H13.75C14.9926 20 16 18.9926 16 17.75V2.25C16 1.00736 14.9926 0 13.75 0H2.25ZM3.75 4H12.25C12.6642 4 13 4.33579 13 4.75C13 5.16421 12.6642 5.5 12.25 5.5H3.75C3.33579 5.5 3 5.16421 3 4.75C3 4.33579 3.33579 4 3.75 4ZM3 14.75C3 14.3358 3.33579 14 3.75 14H12.25C12.6642 14 13 14.3358 13 14.75C13 15.1642 12.6642 15.5 12.25 15.5H3.75C3.33579 15.5 3 15.1642 3 14.75ZM3.75 9H12.25C12.6642 9 13 9.3358 13 9.75C13 10.1642 12.6642 10.5 12.25 10.5H3.75C3.33579 10.5 3 10.1642 3 9.75C3 9.3358 3.33579 9 3.75 9Z" fill="white"/>
</svg>
