<svg width="21" height="21" viewBox="0 0 21 21" fill="none" xmlns="http://www.w3.org/2000/svg">
<path d="M9 15.5C9 14.211 9.3752 13.0097 10.0223 11.9992H2.25278C1.01076 11.9992 0.00390625 13.0061 0.00390625 14.2481V15.1681C0.00390625 15.7401 0.182306 16.298 0.514266 16.7639C2.05643 18.9282 4.5794 20.0004 8.0004 20.0004C8.9312 20.0004 9.7956 19.921 10.592 19.7618C9.6003 18.6208 9 17.1305 9 15.5ZM8.0004 0.00390625C10.7618 0.00390625 13.0004 2.24248 13.0004 5.00391C13.0004 7.76533 10.7618 10.0039 8.0004 10.0039C5.23894 10.0039 3.00036 7.76533 3.00036 5.00391C3.00036 2.24248 5.23894 0.00390625 8.0004 0.00390625ZM21 15.5C21 18.5376 18.5376 21 15.5 21C12.4624 21 10 18.5376 10 15.5C10 12.4624 12.4624 10 15.5 10C18.5376 10 21 12.4624 21 15.5ZM14.3536 13.3536C14.5488 13.1583 14.5488 12.8417 14.3536 12.6464C14.1583 12.4512 13.8417 12.4512 13.6464 12.6464L12.1464 14.1464C11.9512 14.3417 11.9512 14.6583 12.1464 14.8536L13.6464 16.3536C13.8417 16.5488 14.1583 16.5488 14.3536 16.3536C14.5488 16.1583 14.5488 15.8417 14.3536 15.6464L13.7071 15H15.75C16.9926 15 18 16.0074 18 17.25V17.5C18 17.7761 18.2239 18 18.5 18C18.7761 18 19 17.7761 19 17.5V17.25C19 15.4551 17.5449 14 15.75 14H13.7071L14.3536 13.3536Z" fill="white"/>
</svg>
