<svg width="28" height="28" viewBox="0 0 28 28" fill="none" xmlns="http://www.w3.org/2000/svg">
<path d="M6.125 0.5H4.625C2.34683 0.5 0.5 2.34683 0.5 4.625V23.375C0.5 25.6532 2.34683 27.5 4.625 27.5H5V18.5C5 16.6361 6.51104 15.125 8.375 15.125H19.625C21.4889 15.125 23 16.6361 23 18.5V27.5H23.375C25.6532 27.5 27.5 25.6532 27.5 23.375V8.4283C27.5 7.13537 26.9864 5.8954 26.0721 4.98116L23.0189 1.92785C22.1171 1.02619 20.8986 0.514205 19.625 0.500285V7.25C19.625 9.11396 18.1139 10.625 16.25 10.625H9.5C7.63604 10.625 6.125 9.11396 6.125 7.25V0.5ZM17.375 0.5V7.25C17.375 7.87132 16.8713 8.375 16.25 8.375H9.5C8.87868 8.375 8.375 7.87132 8.375 7.25V0.5H17.375ZM20.75 27.5V18.5C20.75 17.8787 20.2463 17.375 19.625 17.375H8.375C7.75368 17.375 7.25 17.8787 7.25 18.5V27.5H20.75Z" fill="white"/>
</svg>
